# xmcd
#
# Track frame offsets:
#	150
#	18529
#	33893
#	55457
#	73570
#	95111
#	109398
#	125702
#
# Disc length: 1888
#
# Revision: 1
# Processed by: cddbd v1.5.1PL0 Copyright (c) Steve Scherf et al.
# Submitted via: EasyCDDAExtractor 4.5.0.1
# Normalized: r0:TRMNUM
#
DISCID=74075e08
DTITLE=Mattos Nascimento - Rei dos Reis
DYEAR=2000
DGENRE=country
TTITLE0=Refúgio e Fortaleza
TTITLE1=Tem fogo aí?
TTITLE2=Há poder no sangue de Jesus
TTITLE3=Rei dos Reis
TTITLE4=Anjos poderosos
TTITLE5=Oh Aleluia
TTITLE6=Jesus
TTITLE7=Só Deus sabe
EXTD=
EXTT0=
EXTT1=
EXTT2=
EXTT3=
EXTT4=
EXTT5=
EXTT6=
EXTT7=
PLAYORDER=
